<svg id="Layer_1" data-name="Layer 1" xmlns="http://www.w3.org/2000/svg" viewBox="0 0 589.62 125.15"><defs><style>.cls-1{fill:#0056a7;}</style></defs><title>UWA-Logo</title><path class="cls-1" d="M214.67,391.08c.49-.24,1.62-.73,2.12-1s.49-.53.32-1a23.14,23.14,0,0,1-1.13-7.27,23.56,23.56,0,1,1,45.18,9.37.6.6,0,0,0,.2.8c.39.15,1.82.79,2.24,1s.69.07.91-.38a27.17,27.17,0,1,0-50.68-2c.13.41.35.69.84.46" transform="translate(-9.74 -319.92)"/><path class="cls-1" d="M207.78,394.28c.55-.29,2.5-1.16,3-1.42a.59.59,0,0,0,.32-.87,30.19,30.19,0,1,1,58.62-10.15,29.79,29.79,0,0,1-2.5,12,.58.58,0,0,0,.3.85l3,1.35c.42.18.69.1.9-.39a34.19,34.19,0,0,0,2.86-13.8,34.78,34.78,0,1,0-69.55,0,34.3,34.3,0,0,0,2.16,12c.08.24.26.7.86.42" transform="translate(-9.74 -319.92)"/><path class="cls-1" d="M198.38,398.61c.66-.34,4.76-2.23,5.46-2.53s.43-.89.32-1.2a37.4,37.4,0,0,1-2.34-13,37.72,37.72,0,1,1,72.4,14.83.76.76,0,0,0,.43,1.13c.64.3,4.62,2.05,5.17,2.27s.95.2,1.31-.6a45.17,45.17,0,1,0-83.73-1.4c.12.29.32.83,1,.54" transform="translate(-9.74 -319.92)"/><path class="cls-1" d="M239.57,372a4.84,4.84,0,1,0,0-9.68,4.84,4.84,0,1,0,0,9.68" transform="translate(-9.74 -319.92)"/><path class="cls-1" d="M241.35,397.37a1.71,1.71,0,0,0,1.7-1.71V385A7.23,7.23,0,0,1,245,381l10-10a1.7,1.7,0,0,0,0-2.43l-1.82-1.82a1.69,1.69,0,0,0-2.42,0l-9,9a2.62,2.62,0,0,1-2.14,1,2.52,2.52,0,0,1-2.14-1l-9-9a1.69,1.69,0,0,0-2.42,0l-1.84,1.82a1.72,1.72,0,0,0,0,2.43l10,10a7.2,7.2,0,0,1,1.91,4.07v10.62a1.71,1.71,0,0,0,1.72,1.71Z" transform="translate(-9.74 -319.92)"/><path class="cls-1" d="M272.86,401.12c-1.68.63-4.84,3.75-6.27,5l-.4.06a51.32,51.32,0,0,0,3.26-4.27c1.73-2.86-1.53-5.55-5.1-3.5-1.36.78-3.63,3.15-4.73,4l-.34.09a42,42,0,0,0,3-4c1.57-2.31-1.69-4.51-4.52-2.8a55.15,55.15,0,0,0-5.31,4.13l-.29.08c.44-.44,1.57-1.77,2-2.23,1.68-1.86-.71-4-3.24-2.7s-5.88,4.68-9.68,7.12c1.78,1,4.87,1.09,9.79,3.2s6.52,7,3.3,10.87c-3,3.59-7.51,2.38-11.4,1.16-4.52-1.42-6.12-2.88-11.57-4.77-3.55-1.24-5-1.22-4.94-2.23.05-1.17,3.13-.48,6,.56,8,2.91,18.58,9.48,21.18,2.39,2.06-5.58-7.14-8-10.67-8.68-4.89-.94-8.27-4.52-12.52-6.82-6.43-3.46-11.36-3.55-15-2.88-3.94.69-9.56,3.91-13,6-2.36,1.4-2.19,3.54.12,6.81a45.11,45.11,0,0,0,75.35-2.17c1.76-2.85-1-5.87-5.07-4.43" transform="translate(-9.74 -319.92)"/><path class="cls-1" d="M143.38,432.23c0,1.29,4.65,2.71,7.08,2.71A7.79,7.79,0,0,0,158,429.7c1.84-4.52,9.48-30.69,9.48-30.69h.86c1.72-.3,2.34-1.32,2.34-3.95,0-.95-.14-1-.9-1h-6.26c-.61,0-.67.11-.86.74l-5.22,20.16-5.36-20.16c-.18-.63-.26-.72-.85-.74H145c-.76,0-.89.08-.89,1,0,2.64.65,3.66,2.36,3.95h.89s5,17.56,7.65,24.92l-.39,1.42c-.85,2.76-2.31,4-4.61,4-.56,0-3.65-.48-3.65-.48-1.75-.14-2.21.6-2.4,1.23a9.82,9.82,0,0,0-.53,2.1" transform="translate(-9.74 -319.92)"/><path class="cls-1" d="M122,384.21h-7.48c-.66,0-.66.07-.77.74l-4.22,26.12-5.09-26c-.13-.7-.23-.87-1-.87H100c-1.25,0-1.3.19-1.45.92l-5.32,25.94-4-26.12c-.1-.67-.11-.74-.75-.74h-7.7c-.79,0-.92.08-.92,1.06,0,2.88.7,3.93,2.73,4.16l.77.06,5.86,32.14c.21.75.27.89,1,.89h5.06c.82,0,.85,0,1-.89l5-25,4.25,25c.16.84.16.87,1,.87h5.17c.68,0,.78-.14,1-.89l6.64-32.17.73,0c2-.23,2.74-1.28,2.74-4.16,0-.91-.13-1-.76-1.06" transform="translate(-9.74 -319.92)"/><path class="cls-1" d="M141.5,417.49a18.27,18.27,0,0,1-.59-5.12V402.26c0-6.36-2.77-9.2-9.06-9.2-4.38,0-9,1.89-9,3.07a10.64,10.64,0,0,0,.5,1.93c.13.37.42,1.24,2.27,1.1.75-.06,4-.66,5.32-.66,3.56,0,3.92,2.07,3.92,4.51v2c-4.44,0-14,.05-14,9.68,0,5.44,3,8.8,7.88,8.8a8.27,8.27,0,0,0,6.62-3.24l.42-.46.13.73c.24,1.18.45,2,1.35,2h6.45c.81,0,.91-.06.91-1,0-2.89-.69-3.91-3.08-4.05m-6.66-1.34c-.7.76-2.18,2.34-4.23,2.34a3.9,3.9,0,0,1-3.72-4.18c0-5.27,6.24-5,8-4.83Z" transform="translate(-9.74 -319.92)"/><path class="cls-1" d="M96.18,370.09l-.68,0V347.27c0-.57,0-.63-.58-.63h-9c-.79,0-.88.06-.88,1,0,3.09.83,4.05,3.5,4.05h.65v18.36l-.68,0c-2.69,0-3.5,1-3.5,4.05,0,.93.11,1,.89,1h12.9c.75,0,.9-.07.9-1,0-3.07-.87-4.05-3.51-4.05" transform="translate(-9.74 -319.92)"/><path class="cls-1" d="M92.27,335.83a3.93,3.93,0,0,0-3.84,4.09,3.81,3.81,0,1,0,7.6,0,3.94,3.94,0,0,0-3.76-4.09" transform="translate(-9.74 -319.92)"/><path class="cls-1" d="M49.6,343h.18c2.73,0,3.59-1,3.59-4.19,0-.93-.11-1-.91-1H40c-.7,0-.8.12-.89.55l0,.47c0,3.17.86,4.17,3.56,4.19h.16v18.72c0,3.58,0,8.47-5.75,8.47-5.32,0-5.74-3.84-5.74-8.47V343h.18c2.67,0,3.54-1,3.54-4.19l0-.58c-.07-.34-.18-.44-.87-.44H21.77c-.79,0-.92.09-.92,1,0,3.21.83,4.19,3.61,4.19h.17v18.72c0,10.07,3.74,14.4,12.47,14.4s12.5-4.33,12.5-14.4Z" transform="translate(-9.74 -319.92)"/><path class="cls-1" d="M78.36,370.09v-15.4c0-6.24-2-9.05-6.63-9.05-4.11,0-6.37,2.4-8.14,4.21-.15-.66-.28-1.18-.28-1.18-.27-1.24-.52-2-1.32-2H55c-.79,0-.9.06-.9,1,0,2.93.73,4,3.21,4a15.7,15.7,0,0,1,.58,5.18v13.22c-2.63,0-3.43,1-3.43,4.05,0,.93.13,1,.9,1h8.29c.52,0,.55-.07.55-.6V353.89c.76-.78,2.48-2.5,4.69-2.5,3.15,0,3.15,3.57,3.15,5.12v18c0,.53,0,.6.55.6h8.26c.76,0,.89-.07.89-1,0-3-.84-4-3.41-4.05" transform="translate(-9.74 -319.92)"/><path class="cls-1" d="M111.68,376.16c3.68,0,6.67-1,6.67-1.77,0-.14-.21-1.22-.34-1.76-.53-2.14-.72-2.94-4.63-2.44a1.51,1.51,0,0,1-1.25-.36c-.75-.77-.75-2.45-.75-3.8V351.7h3.51c2.68,0,3.49-1,3.49-4.05,0-.95-.11-1-.9-1h-6.1v-8c0-.77-.06-.81-.35-.81s-1.56.17-2.22.27c-1.81.29-3.74,1.7-3.74,4.92v3.62h-3.6c-.77,0-.9.06-.9,1,0,3.09.83,4.05,3.49,4.05h1v13.36c0,5.44,0,11.1,6.61,11.1" transform="translate(-9.74 -319.92)"/><path class="cls-1" d="M142.32,361.4c0-10.44-3.48-15.76-10.33-15.76s-11.33,6.24-11.33,15.54c0,12.35,6.31,15,11.61,15,4.26,0,9.21-2,9.21-3.26a11.72,11.72,0,0,0-.5-2c-.18-.64-.57-1.28-2.36-1.21-1.39.08-3.62.73-5.68.73-3.94,0-5.94-2.46-6-7.71H141.3c.84,0,1-.21,1-1.28m-15.12-3.76,0-.48c.16-1.94.57-6.47,4.61-6.47s4,4.61,4,6.95Z" transform="translate(-9.74 -319.92)"/><path class="cls-1" d="M167.78,370.09a15.57,15.57,0,0,1-.57-5.09V336.58c0-.54,0-.62-.57-.62h-8.3c-.77,0-.92.08-.92,1,0,3,.81,4,3.29,4.07h.18v6.55l-.51-.36a7.64,7.64,0,0,0-5-1.57c-6.48,0-9.92,5.68-9.92,16.43,0,9.06,3.13,14.09,8.83,14.09a10.88,10.88,0,0,0,7.47-3.32l.36,1.23c.27,1,.33,1.07,1.09,1.07h7.32c.75,0,.89-.07.89-1,0-3.06-.8-4.05-3.62-4.05m-11.42.6c-3.84,0-4.6-3.52-4.6-9.62,0-6.48.8-10,4.93-10a7,7,0,0,1,4.2,1.25v16.17a5.39,5.39,0,0,1-4.53,2.17" transform="translate(-9.74 -319.92)"/><path class="cls-1" d="M280.57,431.69a3.45,3.45,0,0,1,6.9,0,3.45,3.45,0,1,1-6.9,0m6.23,0a2.79,2.79,0,1,0-2.79,2.89,2.78,2.78,0,0,0,2.79-2.89m-3.47,2.06h-.6v-4h1.5c.93,0,1.39.37,1.39,1.14a1,1,0,0,1-1,1.09l1.07,1.79H285L284,432h-.62Zm0-2.28H284c.73,0,1-.1,1-.63s-.26-.6-.88-.6h-.81Z" transform="translate(-9.74 -319.92)"/><path class="cls-1" d="M9.78,319.92l0,125.15H300l.08-125.15Zm2.51,2.52h168V442.59h-168ZM297.57,442.59H182.76V322.44H297.57Z" transform="translate(-9.74 -319.92)"/><path class="cls-1" d="M364.88,370.35c-.74,2.28-3.56,5.43-9.79,5.43-4.39,0-7.62-1.33-9.25-3.86-.95-1.49-1.25-2.65-1.25-5.43V346.41h6v19a7.85,7.85,0,0,0,.49,3.44c.66,1.29,2,2,4,2,2.52,0,4.14-1.24,4.39-3.36a18.87,18.87,0,0,0,.08-2.57V346.41h5.9v19.41C365.35,368.56,365.31,369.1,364.88,370.35Z" transform="translate(-9.74 -319.92)"/><path class="cls-1" d="M381.94,375.24V361.43c0-2.41-.42-3.12-1.87-3.12a6.48,6.48,0,0,0-3.86,1.91v15h-5.56V359.85a15.57,15.57,0,0,0-.74-5l4.93-1.41a5.39,5.39,0,0,1,.78,2.66,27,27,0,0,1,2.45-1.58,8.83,8.83,0,0,1,3.82-.91,5.26,5.26,0,0,1,5.1,3.07,8.29,8.29,0,0,1,.42,3v15.52Z" transform="translate(-9.74 -319.92)"/><path class="cls-1" d="M395.58,351.59a3.42,3.42,0,0,1-3.4-3.44,3.46,3.46,0,0,1,3.48-3.44,3.39,3.39,0,0,1,3.36,3.44A3.43,3.43,0,0,1,395.58,351.59Zm-2.78,23.65V354.37l5.56-.87v21.74Z" transform="translate(-9.74 -319.92)"/><path class="cls-1" d="M409.85,375.74c-2.82,0-5.07-1.24-5.73-3.11a8,8,0,0,1-.38-3.28V357.82h-2.11V354h2.11a34.75,34.75,0,0,1,.22-5l5.64-1.41a62.68,62.68,0,0,0-.33,6.43h5l-1.41,3.82h-3.56v10.66c0,2.7.49,3.4,2.4,3.4a7.29,7.29,0,0,0,2-.41l.7,3.31A11.57,11.57,0,0,1,409.85,375.74Z" transform="translate(-9.74 -319.92)"/><path class="cls-1" d="M422.25,366.36v.17c0,3.28,1.62,5.14,4.48,5.14a8.29,8.29,0,0,0,5.39-2.11l2.16,3.32a12.2,12.2,0,0,1-8,2.94c-6.09,0-10-4.31-10-11,0-3.82.79-6.35,2.65-8.42a8.38,8.38,0,0,1,6.69-2.87,8.71,8.71,0,0,1,6.14,2.24c1.94,2,2.82,4.86,2.82,9.3v1.28Zm6.51-4.31a5.56,5.56,0,0,0-.66-3.2,2.71,2.71,0,0,0-2.45-1.24c-2.12,0-3.32,1.66-3.32,4.6v.09h6.43Z" transform="translate(-9.74 -319.92)"/><path class="cls-1" d="M450.83,375.24a3.6,3.6,0,0,1-.33-1.24,7.12,7.12,0,0,1-4.89,1.78c-5.4,0-8.8-4.19-8.8-10.79s3.69-11.2,9.08-11.2a5.79,5.79,0,0,1,3.78,1.2,26,26,0,0,1-.17-3.15v-7.3l5.52.87v22.07c0,5.23.42,6.93.79,7.76Zm-1.24-15.64a4.67,4.67,0,0,0-3-1.37c-2.48,0-3.56,2.07-3.56,6.8,0,4.57.95,6.06,3.86,6.06a4,4,0,0,0,2.74-1.37Z" transform="translate(-9.74 -319.92)"/><path class="cls-1" d="M494,375.49h-6.35L485,363.75a70.59,70.59,0,0,1-1.36-8.21c-.08.66-.58,4.31-1.37,8.13l-2.41,11.82h-6.59l-6.89-29.08h6.14l2.49,11.36a87.8,87.8,0,0,1,1.53,9.51c.13-1.12.63-5.23,1.5-9.22l2.57-11.65H487l2.65,12.9c.55,2.7,1.25,7.63,1.25,7.63.08-.91,1-6.76,1.58-9.58l2.36-10.95h6.1Z" transform="translate(-9.74 -319.92)"/><path class="cls-1" d="M517.82,376.32a5.93,5.93,0,0,1-3-2.57,10.74,10.74,0,0,1-1.29,1.12,7.37,7.37,0,0,1-4.27,1.16c-4.73,0-7.3-2.41-7.3-6.64,0-5,3.44-7.3,10.21-7.3.41,0,.78,0,1.24,0v-.87c0-2.37-.46-3.15-2.49-3.15-1.78,0-3.85.87-6.14,2.4l-2.37-4a20.39,20.39,0,0,1,3.44-1.74,14.48,14.48,0,0,1,5.82-1.25c3.57,0,6,1.33,6.84,3.69a9.74,9.74,0,0,1,.37,3.82l-.12,7.14c0,2.32.12,3.32,2,4.73ZM513.09,366c-3.86,0-5.19.7-5.19,3.23a2.51,2.51,0,0,0,2.44,2.78,4,4,0,0,0,2.91-1.45l.08-4.56Z" transform="translate(-9.74 -319.92)"/><path class="cls-1" d="M534.45,375.58c-1.46,4.1-2.53,5.88-4.07,7a11.21,11.21,0,0,1-5.14,1.95l-1.91-3.65a12.44,12.44,0,0,0,3.44-1.41,6.48,6.48,0,0,0,1.58-1.74,12.61,12.61,0,0,0,1.2-2.49h-1.41c-.67-2-1.79-5.31-2-6l-5-14.94,5.69-.66,3.7,12.4c.33,1.25,1,4.11,1.11,4.4,0-.12.42-2.37.67-3.4.16-.71.5-1.95.83-2.95L536.31,354h5.85Z" transform="translate(-9.74 -319.92)"/><path class="cls-1" d="M563.36,349.27a4.68,4.68,0,0,0-2.29-.7,2.18,2.18,0,0,0-2.32,2.4v3h5.4l-1.42,3.82h-3.94v17.42h-5.43V357.82h-1.91V354h2a22.48,22.48,0,0,1-.21-2.9c0-4.2,2.5-6.6,6.86-6.6a9.54,9.54,0,0,1,5,1.33Z" transform="translate(-9.74 -319.92)"/><path class="cls-1" d="M580.65,372.75a8.66,8.66,0,0,1-7,2.95c-5.77,0-9.54-4.32-9.54-11s3.82-11.12,9.54-11.12a8.91,8.91,0,0,1,7.22,3.2c1.71,2,2.45,4.32,2.45,7.76C583.31,368.19,582.48,370.68,580.65,372.75Zm-4.52-13.94a3,3,0,0,0-5.27,1,20.21,20.21,0,0,0,.12,10.08,3.09,3.09,0,0,0,2.83,1.74c2.41,0,3.44-2.15,3.44-7.17C577.25,361.63,576.88,359.77,576.13,358.81Z" transform="translate(-9.74 -319.92)"/><path class="cls-1" d="M597.82,358.85a3.12,3.12,0,0,0-1.61-.41,4.45,4.45,0,0,0-3.41,1.78v15h-5.55V361.05a19.05,19.05,0,0,0-.8-6.22l5-1.33a6.78,6.78,0,0,1,.88,3c1.2-1.62,2.9-3,5-3a4.21,4.21,0,0,1,2.08.46Z" transform="translate(-9.74 -319.92)"/><path class="cls-1" d="M356.34,422.33c-4.31,0-7.5-1.41-9.83-4.39-2.11-2.71-3.07-5.77-3.07-10.09,0-6.1,2-10.41,6-13.11a11.94,11.94,0,0,1,7-2,13.69,13.69,0,0,1,9.18,3.33l-3.08,3.6a9.13,9.13,0,0,0-6-2.23,5.86,5.86,0,0,0-4.15,1.45c-1.95,1.86-2.45,5-2.45,9.29,0,4.11.71,6.76,2.16,8.21a6.38,6.38,0,0,0,4.52,1.62,6.9,6.9,0,0,0,3.28-.7v-6.56h-4.4l-.75-4.73h11.16v13.78A18.56,18.56,0,0,1,356.34,422.33Z" transform="translate(-9.74 -319.92)"/><path class="cls-1" d="M381.48,405.61a3.16,3.16,0,0,0-1.62-.42,4.43,4.43,0,0,0-3.4,1.78v15h-5.57V407.81a19.54,19.54,0,0,0-.78-6.23l5-1.33a6.94,6.94,0,0,1,.87,3c1.2-1.62,2.91-3,5-3a4.2,4.2,0,0,1,2.07.46Z" transform="translate(-9.74 -319.92)"/><path class="cls-1" d="M389.65,413.12v.17c0,3.27,1.61,5.14,4.48,5.14a8.3,8.3,0,0,0,5.39-2.12l2.16,3.32a12.15,12.15,0,0,1-8,2.95c-6.1,0-10-4.32-10-11,0-3.81.79-6.34,2.65-8.42a8.38,8.38,0,0,1,6.69-2.87,8.73,8.73,0,0,1,6.14,2.25c1.94,2,2.81,4.85,2.81,9.29v1.29Zm6.51-4.32a5.43,5.43,0,0,0-.67-3.19,2.68,2.68,0,0,0-2.44-1.25c-2.12,0-3.33,1.66-3.33,4.61v.08h6.44Z" transform="translate(-9.74 -319.92)"/><path class="cls-1" d="M419.84,423.08a6,6,0,0,1-3-2.57,11.65,11.65,0,0,1-1.28,1.12,7.43,7.43,0,0,1-4.28,1.16c-4.73,0-7.3-2.41-7.3-6.64,0-5,3.44-7.31,10.2-7.31.42,0,.8,0,1.25,0V408c0-2.38-.45-3.16-2.49-3.16-1.78,0-3.86.87-6.14,2.4l-2.36-4a19.66,19.66,0,0,1,3.44-1.73,14.24,14.24,0,0,1,5.8-1.26c3.58,0,6,1.34,6.85,3.7a9.85,9.85,0,0,1,.38,3.82l-.13,7.13c0,2.33.13,3.32,2,4.73Zm-4.73-10.38c-3.85,0-5.17.71-5.17,3.24a2.51,2.51,0,0,0,2.44,2.78,4,4,0,0,0,2.9-1.45l.09-4.57Z" transform="translate(-9.74 -319.92)"/><path class="cls-1" d="M432.37,422.49c-2.82,0-5.07-1.24-5.73-3.11a8,8,0,0,1-.37-3.27V404.57h-2.11v-3.82h2.11a36.17,36.17,0,0,1,.21-5l5.64-1.42c-.2,2-.33,4.28-.33,6.43h5l-1.41,3.82h-3.57v10.66c0,2.71.5,3.41,2.41,3.41a7.31,7.31,0,0,0,2-.42l.71,3.32A11.69,11.69,0,0,1,432.37,422.49Z" transform="translate(-9.74 -319.92)"/><path class="cls-1" d="M444.77,413.12v.17c0,3.27,1.62,5.14,4.48,5.14a8.3,8.3,0,0,0,5.39-2.12l2.16,3.32a12.15,12.15,0,0,1-8,2.95c-6.09,0-10-4.32-10-11,0-3.81.79-6.34,2.66-8.42a8.34,8.34,0,0,1,6.68-2.87,8.67,8.67,0,0,1,6.13,2.25c2,2,2.83,4.85,2.83,9.29v1.29Zm6.51-4.32a5.44,5.44,0,0,0-.66-3.19,2.69,2.69,0,0,0-2.45-1.25c-2.12,0-3.32,1.66-3.32,4.61v.08h6.43Z" transform="translate(-9.74 -319.92)"/><path class="cls-1" d="M471.16,405.61a3.2,3.2,0,0,0-1.63-.42,4.44,4.44,0,0,0-3.4,1.78v15h-5.55V407.81a19.12,19.12,0,0,0-.8-6.23l5-1.33a6.94,6.94,0,0,1,.87,3c1.2-1.62,2.9-3,5-3a4.23,4.23,0,0,1,2.08.46Z" transform="translate(-9.74 -319.92)"/><path class="cls-1" d="M498.82,422l-2-6.84h-8.47l-2,6.84h-6.06l9.47-28.91H496L505,422Zm-5-17.46c-.29-1.33-1.16-5.11-1.16-5.11s-.84,3.4-1.37,5.57-.91,3.43-1.54,5.35h5.64S494.43,407.31,493.8,404.53Z" transform="translate(-9.74 -319.92)"/><path class="cls-1" d="M521,422.58a5,5,0,0,1-1.66-2.07,7.94,7.94,0,0,1-5.59,2c-3,0-5.57-1.42-6.28-3.44a13.25,13.25,0,0,1-.44-4.25v-13.6l5.47-1v13.64a8.39,8.39,0,0,0,.46,3.49,2.19,2.19,0,0,0,2,1,4.08,4.08,0,0,0,3.43-2V401.38l5.32-1.13v16.22a6.16,6.16,0,0,0,1.28,3.86Z" transform="translate(-9.74 -319.92)"/><path class="cls-1" d="M535.31,422.66a19,19,0,0,1-8.58-2.44l2-4.07c1.7,1,4.64,2.4,7,2.4a2.6,2.6,0,0,0,2.82-2.4c0-1.45-1-2.21-3.28-2.62l-2.48-.45a7.48,7.48,0,0,1-3.9-2.17,6.46,6.46,0,0,1-1.21-3.81c0-4.14,3.29-6.93,8.22-6.93a16,16,0,0,1,7.59,2l-1.82,3.74a11.27,11.27,0,0,0-5.23-1.54c-1.62,0-2.69.83-2.69,2.08,0,1.08.7,1.66,2.65,2.15l2.57.67c2.61.67,3.49,1.45,4.24,2.41a5.63,5.63,0,0,1,1.15,3.6C544.4,419.67,540.75,422.66,535.31,422.66Z" transform="translate(-9.74 -319.92)"/><path class="cls-1" d="M554.23,422.49c-2.82,0-5.06-1.24-5.73-3.11a7.82,7.82,0,0,1-.37-3.27V404.57H546v-3.82h2.12a36.17,36.17,0,0,1,.21-5l5.65-1.42a62.91,62.91,0,0,0-.34,6.43h5l-1.41,3.82h-3.57v10.66c0,2.71.5,3.41,2.41,3.41a7.44,7.44,0,0,0,2-.42l.7,3.32A11.73,11.73,0,0,1,554.23,422.49Z" transform="translate(-9.74 -319.92)"/><path class="cls-1" d="M564.64,398.35a3.43,3.43,0,0,1-3.4-3.45,3.47,3.47,0,0,1,3.48-3.44,3.4,3.4,0,0,1,3.37,3.44A3.44,3.44,0,0,1,564.64,398.35ZM561.86,422V401.13l5.56-.88V422Z" transform="translate(-9.74 -319.92)"/><path class="cls-1" d="M584.09,422V408.18c0-2.41-.41-3.11-1.85-3.11a6.49,6.49,0,0,0-3.87,1.9v15h-5.56V406.61a15.48,15.48,0,0,0-.74-5l4.93-1.41a5.3,5.3,0,0,1,.79,2.65,23.75,23.75,0,0,1,2.45-1.57,8.63,8.63,0,0,1,3.82-.92,5.29,5.29,0,0,1,5.1,3.07,8.57,8.57,0,0,1,.41,3V422Z" transform="translate(-9.74 -319.92)"/></svg>